{"title":"Becoming Mike Nichols 2016 HDTV 720p Legendado PT-BR","uid":15623295,"size":2683959215,"categoryP":"video","categoryS":"hd___movies","magnet":"?xt=urn:btih:97af37c4e0332526283b8899a39dade40bc91d88&amp;dn=Becoming+Mike+Nichols+2016+HDTV+720p+Legendado+PT-BR&amp;tr=udp%3A%2F%2Ftracker.leechers-paradise.org%3A6969&amp;tr=udp%3A%2F%2Fzer0day.ch%3A1337&amp;tr=udp%3A%2F%2Fopen.demonii.com%3A1337&amp;tr=udp%3A%2F%2Ftracker.coppersurfer.tk%3A6969&amp;tr=udp%3A%2F%2Fexodus.desync.com%3A6969","seeders":2,"leechers":3,"uploader":null,"files":1,"time":1471892493,"description":"Audio: English\r\nSubtitles/legendas: Português (hardsubed)\r\n\r\n===================================================\r\nOne of the oldest adages in show business is to leave 'em wanting more, and Mike Nichols does just that even from the grave in Becoming Mike Nichols, a short, funny and illuminating interview-based documentary that will leave theater and film mavens both satisfied and hungry for many additional courses.\r\n\r\nAlways the smartest man in the room and both a witty and deeply thoughtful talent, Nichols, in interviews with his theater director friend Jack O'Brien, proves constantly fascinating as he discourses about his early years in improv and teaming with Elaine May, quickly followed by his meteoric ascent as Broadway's, and then Hollywood's, hottest director of the 1960s.\r\n\r\n====================================================\r\nUm dos mais antigos ditados do mundo do entretenimento é &quot;deixar o público querendo mais&quot;, e Mike Nichols faz exatamente isso (ainda que do túmulo) em Becoming Mike Nichols, um documentário-entrevista curto, engraçado e esclarecedor que deixará os entendidos em filmes satisfeitos e famintos por mais.\r\n\r\nSempre o cara mais esperto da sala, um talento genial e reflexivo, Nichols mostra-se fascinante constantemente nas entrevistas com o diretor de teatro Jack O'Brien à medida que discorre sobre seus primeiros anos de improvisação junto com Elaine May, rapidamente seguidos pela meteórica ascensão como diretor mais cobiçado da Broadway e depois em Hollywood nos anos 1960.\r\n\r\n====================================================\r\nVideo\r\nID                             : 1\r\nFormat                         : AVC\r\nFormat/Info                    : Advanced Video Codec\r\nFormat profile                 :   \r\nFormat settings, CABAC         : Yes\r\nFormat settings, ReFrames      : 4 frames\r\nCodec ID                       : V_MPEG4/ISO/AVC\r\nDuration                       : 1h 11mn\r\nBit rate                       : 4 599 Kbps\r\nWidth                          : 1 280 pixels\r\nHeight                         : 720 pixels\r\nDisplay aspect ratio           : 16:9\r\nFrame rate mode                : Constant\r\nFrame rate                     : 59.880 fps\r\nOriginal frame rate            : 59.940 fps\r\nColor space                    : YUV\r\nChroma subsampling             : 4:2:0\r\nBit depth                      : 8 bits\r\nScan type                      : Progressive\r\nBits/(Pixel*Frame)             : 0.083\r\nStream size                    : 2.26 GiB (90%)\r\n\r\nAudio\r\nID                             : 2\r\nFormat                         : AC-3\r\nFormat/Info                    : Audio Coding 3\r\nMode extension                 : CM (complete main)\r\nFormat settings, Endianness    : Big\r\nCodec ID                       : A_AC3\r\nDuration                       : 1h 11mn\r\nBit rate mode                  : Constant\r\nBit rate                       : 384 Kbps\r\nChannel(s)                     : 2 channels\r\nChannel positions              : Front: L R\r\nSampling rate                  : 48.0 KHz\r\nBit depth                      : 16 bits\r\nCompression mode               : Lossy\r\nDelay relative to video        : 14ms\r\nStream size                    : 197 MiB (8%)\r\nLanguage                       : English\r\nDefault                        : Yes\r\nForced                         : No","torrent":{"xt":"urn:btih:97af37c4e0332526283b8899a39dade40bc91d88","amp;dn":"Becoming+Mike+Nichols+2016+HDTV+720p+Legendado+PT-BR","amp;tr":["udp%3A%2F%2Ftracker.leechers-paradise.org%3A6969","udp%3A%2F%2Fzer0day.ch%3A1337","udp%3A%2F%2Fopen.demonii.com%3A1337","udp%3A%2F%2Ftracker.coppersurfer.tk%3A6969","udp%3A%2F%2Fexodus.desync.com%3A6969"],"infoHash":"97af37c4e0332526283b8899a39dade40bc91d88","infoHashBuffer":{"type":"Buffer","data":[151,175,55,196,224,51,37,38,40,59,136,153,163,157,173,228,11,201,29,136]},"announce":[],"urlList":[]}}